<?xml version="1.0" encoding="utf-8"?>
<!-- Generator: Adobe Illustrator 23.0.4, SVG Export Plug-In . SVG Version: 6.00 Build 0)  -->
<svg version="1.1" id="Layer_1" xmlns="http://www.w3.org/2000/svg" xmlns:xlink="http://www.w3.org/1999/xlink" x="0px" y="0px"
	 viewBox="0 0 32 32" style="enable-background:new 0 0 32 32;" xml:space="preserve">
<style type="text/css">
	.st0{fill:#008AD0;}
	.st1{fill:#333333;}
</style>
<g>
	<path class="st1" d="M30,31H2c-0.553,0-1-0.447-1-1V2c0-0.553,0.447-1,1-1h28c0.553,0,1,0.447,1,1v28C31,30.553,30.553,31,30,31z
		 M3,29h26V3H3V29z"/>
</g>
<g>
	<path class="st0" d="M21.001,28c-0.323,0-0.641-0.156-0.833-0.445L13,16.803L5.832,27.555c-0.307,0.459-0.927,0.583-1.387,0.277
		c-0.46-0.307-0.584-0.927-0.277-1.387l8-12c0.371-0.557,1.293-0.557,1.664,0l8,12c0.307,0.46,0.183,1.08-0.277,1.387
		C21.384,27.945,21.191,28,21.001,28z"/>
</g>
<g>
	<path class="st0" d="M27.287,28c-0.315,0-0.626-0.149-0.821-0.428L21,19.746l-2.181,3.123c-0.317,0.452-0.94,0.562-1.393,0.248
		c-0.453-0.316-0.563-0.94-0.248-1.393l3.001-4.297c0.375-0.537,1.266-0.537,1.641,0l6.286,9c0.315,0.452,0.205,1.076-0.248,1.392
		C27.685,27.941,27.484,28,27.287,28z"/>
</g>
<g>
	<path class="st1" d="M22.5,14c-2.481,0-4.5-2.019-4.5-4.5S20.019,5,22.5,5S27,7.019,27,9.5S24.981,14,22.5,14z M22.5,7
		C21.121,7,20,8.121,20,9.5s1.121,2.5,2.5,2.5S25,10.879,25,9.5S23.879,7,22.5,7z"/>
</g>
</svg>
